<?xml version="1.0" encoding="UTF-8"?> <!-- Generator: Adobe Illustrator 22.0.1, SVG Export Plug-In . SVG Version: 6.00 Build 0) --> <svg xmlns="http://www.w3.org/2000/svg" xmlns:xlink="http://www.w3.org/1999/xlink" id="Layer_1" x="0px" y="0px" viewBox="0 0 64 64" style="enable-background:new 0 0 64 64;" xml:space="preserve"> <style type="text/css"> .st0{fill:#FFFFFF;} </style> <path class="st0" d="M32,1.3c16.9,0,30.7,13.8,30.7,30.7S48.9,62.7,32,62.7S1.3,48.9,1.3,32S15.1,1.3,32,1.3 M32,0 C14.3,0,0,14.3,0,32c0,17.7,14.3,32,32,32s32-14.3,32-32C64,14.3,49.7,0,32,0L32,0z"></path> <g> <path class="st0" d="M38.3,18.6H42v-6.4c-0.6-0.1-2.8-0.3-5.3-0.3c-5.3,0-8.9,3.3-8.9,9.4V27H22v7.1h5.8V52h7.1V34.1h5.6l0.9-7.1 h-6.5v-4.9C34.9,20,35.5,18.6,38.3,18.6L38.3,18.6z"></path> </g> </svg> 