<?xml version="1.0" encoding="UTF-8"?> <!-- Generator: Adobe Illustrator 22.0.1, SVG Export Plug-In . SVG Version: 6.00 Build 0) --> <svg xmlns="http://www.w3.org/2000/svg" xmlns:xlink="http://www.w3.org/1999/xlink" id="Layer_1" x="0px" y="0px" viewBox="0 0 64 64" style="enable-background:new 0 0 64 64;" xml:space="preserve"> <style type="text/css"> .st0{fill:#FFFFFF;} </style> <path class="st0" d="M32,1.3c16.9,0,30.7,13.8,30.7,30.7S48.9,62.7,32,62.7S1.3,48.9,1.3,32S15.1,1.3,32,1.3 M32,0 C14.3,0,0,14.3,0,32c0,17.7,14.3,32,32,32s32-14.3,32-32C64,14.3,49.7,0,32,0L32,0z"></path> <g> <path class="st0" d="M38.3,16H25.8c-5.4,0-9.8,4.4-9.8,9.8v12.5c0,5.4,4.4,9.8,9.8,9.8h12.5c5.4,0,9.8-4.4,9.8-9.8V25.7 C48,20.3,43.7,16,38.3,16z M32,39.5c-4.1,0-7.5-3.3-7.5-7.5c0-4.1,3.4-7.5,7.5-7.5s7.5,3.4,7.5,7.5C39.5,36.1,36.1,39.5,32,39.5z M40.5,25c-1,0-1.8-0.8-1.8-1.8c0-1,0.8-1.8,1.8-1.8c1,0,1.8,0.8,1.8,1.8C42.3,24.2,41.5,25,40.5,25z"></path> </g> </svg> 