<?xml version="1.0"?>
<svg width="223" height="21.4" xmlns="http://www.w3.org/2000/svg" xmlns:svg="http://www.w3.org/2000/svg">
 <style type="text/css">.st0{clip-path:url(#SVGID_2_);} .st1{clip-path:url(#SVGID_4_);} .st2{clip-path:url(#SVGID_4_);fill:#FF2B15;} .st3{clip-path:url(#SVGID_4_);fill:#D2D7D8;} .st4{clip-path:url(#SVGID_6_);} .st5{clip-path:url(#SVGID_10_);} .st6{clip-path:url(#SVGID_16_);fill:none;stroke:#D2D7D8;stroke-width:0.5;stroke-miterlimit:10;} .st7{clip-path:url(#SVGID_16_);fill:none;stroke:#000000;stroke-width:0.5;stroke-miterlimit:10;} .st8{clip-path:url(#SVGID_20_);fill:none;stroke:#000000;stroke-width:0.5;stroke-miterlimit:10;} .st9{clip-path:url(#SVGID_22_);fill:url(#SVGID_23_);} .st10{clip-path:url(#SVGID_25_);fill:url(#SVGID_26_);}</style>
 <g class="layer">
  <title>Layer 1</title>
  <g id="svg_1">
   <path d="m73,10.3c-0.900002,0 -1.699997,0 -2.5,0c-0.099998,0 -0.199997,-0.1 -0.199997,-0.2c-0.100006,-0.8 -0.600006,-1.200001 -1.200005,-1.5c-0.900002,-0.5 -1.799995,-0.7 -2.799995,-0.900001c-3.900002,-0.6 -7.700005,-0.6 -11.600002,-0.5c-2.299999,0 -4.700001,0.2 -6.900002,0.7c-1.200001,0.3 -2.399998,0.6 -3.5,1.1c-0.599998,0.2 -1.099998,0.6 -1.599998,0.9c-2.100002,1.700001 -2.100002,4.6 0.099998,6.300001c1.200001,0.9 2.600002,1.299999 4,1.699999c2.799999,0.700001 5.600002,0.9 8.5,0.9c3.299999,0.1 6.600002,0 9.899998,-0.5c1,-0.099998 2.100006,-0.4 3.100006,-0.699999c0.399994,-0.1 0.699997,-0.300001 1.099998,-0.5c0.799995,-0.5 1.199997,-1.200001 1,-2.200001l-11.300003,0l0,-2.5l13.900002,0l0,8.5l-2.599998,0l0,-2.699999c-0.200005,0.199999 -0.300003,0.299999 -0.5,0.4c-0.700005,0.4 -1.400002,0.799999 -2.099998,1.1c-1.800003,0.699999 -3.600006,1 -5.500004,1.199999c-3.399998,0.300001 -6.799999,0.4 -10.099998,0.1c-2.799999,-0.200001 -5.700001,-0.5 -8.299999,-1.5c-0.800003,-0.299999 -1.600002,-0.700001 -2.400002,-1.200001c-2.200001,-1.4 -3.299999,-3.4 -3.099998,-5.999999c0.099998,-2 1,-3.5 2.599998,-4.7c1.599998,-1.2 3.400002,-1.9 5.400002,-2.3c2.599998,-0.6 5.299999,-0.8 8,-0.9c2.899998,0 5.799999,0 8.599998,0.2c2.199997,0.1 4.5,0.4 6.599998,1.2c1.099998,0.4 2,0.9 2.700005,1.9c0.5,0.900001 0.699997,1.7 0.699997,2.6" fill="#ff2b15" id="svg_2"/>
   <path d="m168.899994,21.299999c-3.199997,0 -5.900009,-0.099998 -8.699997,-0.4c-1.800003,-0.199999 -3.5,-0.5 -5.200012,-1.199999c-1.699997,-0.700001 -3.199997,-1.700001 -4,-3.5c-0.599991,-1.300001 -0.699997,-2.6 -0.599991,-4.000001c0.199997,-3 1.899994,-4.8 4.599991,-5.9c1.700012,-0.7 3.5,-1 5.400009,-1.2c4.300003,-0.5 8.699997,-0.5 13,-0.3c2.699997,0.1 5.300003,0.4 7.800003,1.3c0.799988,0.3 1.599991,0.7 2.399994,1.1c1.699997,1.1 2.699997,2.7 2.800003,4.7c0.099991,1 0.099991,2.1 -0.199997,3.1c-0.400009,1.700001 -1.400009,2.9 -2.800003,3.9c-1.400009,0.9 -3,1.300001 -4.600006,1.6c-3.299988,0.700001 -6.799988,0.799999 -9.899994,0.799999m-1.699997,-2.5c4.100006,-0.099998 7,-0.099998 9.800003,-0.5c1.399994,-0.199999 2.800003,-0.5 4.100006,-1.199999c2.299988,-1.1 3.099991,-3.1 2.5,-5.6c-0.300003,-1.4 -1.300003,-2.2 -2.5,-2.8c-1.5,-0.7 -3,-1.1 -4.700012,-1.2c-2.099991,-0.2 -4.199997,-0.3 -6.399994,-0.4c-3.399994,-0.1 -6.800003,0 -10.100006,0.5c-1.5,0.2 -2.899994,0.5 -4.299988,1.2c-2.300003,1.2 -3,3.2 -2.400009,5.599999c0.400009,1.400001 1.400009,2.200001 2.600006,2.800001c1.599991,0.699999 3.300003,1.099998 5,1.199999c2.699997,0.200001 5.199997,0.300001 6.399994,0.4" fill="#ff2b15" id="svg_3"/>
   <path d="m93.900002,21.299999c-2.800003,0 -5.5,-0.099998 -8.300003,-0.4c-1.799995,-0.199999 -3.5,-0.5 -5.199997,-1.199999c-1.800003,-0.700001 -3.300003,-1.800001 -4,-3.700001c-0.800003,-2 -0.800003,-4 0,-6c0.699997,-1.8 2.099998,-2.8 3.799995,-3.5c1.600006,-0.7 3.400002,-1.1 5.200005,-1.3c4.199997,-0.6 8.5,-0.5 12.699997,-0.4c2.300003,0.1 4.700005,0.3 6.900002,0.8c1.199997,0.3 2.400002,0.6 3.5,1.2c2.300003,1.3 3.5,3.2 3.5,5.9c0,1.3 -0.099998,2.5 -0.699997,3.7c-0.800003,1.700001 -2.200005,2.6 -3.900002,3.300001c-1.700005,0.699999 -3.400002,1 -5.200005,1.199999c-2.799995,0.300001 -5.5,0.4 -8.299995,0.4m-1,-2.5c4.099998,-0.099998 7.099998,-0.099998 10,-0.599998c1.400002,-0.200001 2.699997,-0.5 3.900002,-1.200001c1.299995,-0.700001 2.199997,-1.8 2.399994,-3.3c0.200005,-2 -0.299995,-3.599999 -2.399994,-4.7c-0.5,-0.3 -1,-0.5 -1.5,-0.7c-2.5,-0.8 -5,-1 -7.600006,-1.1c-3.299995,-0.1 -6.5,-0.1 -9.799995,0.1c-1.800003,0.1 -3.700005,0.4 -5.5,0.9c-1.200005,0.400001 -2.300003,0.900001 -3.099998,1.900001c-1.600006,2.099999 -1,5.299999 1.299995,6.699999c0.300003,0.200001 0.599998,0.300001 0.900002,0.400002c1.699997,0.799999 3.599998,1 5.400002,1.199999c2.400002,0.200001 4.699997,0.300001 6,0.4" fill="#ff2b15" id="svg_4"/>
   <path d="m18.1,21.299999c-2.8,0 -5.5,-0.099998 -8.3,-0.4c-1.8,-0.199999 -3.7,-0.6 -5.4,-1.299999c-1.8,-0.700001 -3.2,-1.800001 -3.9,-3.700001c-0.7,-2 -0.7,-4 0,-5.9c0.7,-1.9 2.2,-2.9 4,-3.7c1.6,-0.7 3.3,-1 5,-1.2c4.2,-0.6 8.4,-0.5 12.700001,-0.4c2.299999,0.1 4.699999,0.3 7,0.8c1.299999,0.3 2.5,0.7 3.700001,1.3c2.099998,1.2 3.199997,3 3.299999,5.4c0.099998,1.3 0,2.6 -0.600002,3.900001c-0.799999,1.799999 -2.299999,2.9 -4.199999,3.6c-1.799999,0.699999 -3.699999,1 -5.6,1.199999c-2.599998,0.200001 -5.199999,0.300001 -7.799999,0.5c0.1,-0.1 0.1,-0.1 0.1,-0.1m-1.200001,-2.5c4.1,-0.099998 6.9,-0.099998 9.800001,-0.5c1.5,-0.199999 2.9,-0.5 4.199999,-1.199999c2.300001,-1.200001 2.800001,-2.900001 2.500002,-5.1c-0.200001,-1.5 -1.200001,-2.5 -2.500002,-3.2c-1.5,-0.8 -3.1,-1.1 -4.799999,-1.3c-2.1,-0.2 -4.200001,-0.3 -6.4,-0.4c-3.5,-0.1 -7.1,0 -10.6,0.5c-1.400001,0.3 -2.8,0.6 -4.1,1.4c-2.4,1.4 -3.1,4.6 -1.4,6.8c0.5,0.7 1.2,1.099999 2,1.499999c1.6,0.700001 3.3,1.1 5,1.200001c2.5,0.1 5,0.200001 6.299999,0.299999" fill="#ff2b15" id="svg_5"/>
   <path d="m147.600006,21c-1.5,0 -2.899994,0 -4.300003,0c-0.199997,0 -0.299988,-0.1 -0.5,-0.200001c-8.299988,-4.4 -16.499992,-8.9 -24.799995,-13.299999c-0.099998,-0.1 -0.199997,-0.1 -0.399994,-0.2l0,13.7l-2.700005,0l0,-16l0.400002,0c1.099998,0 2.300003,0 3.400002,0c0.199997,0 0.5,0.1 0.699997,0.2c8.400002,4.5 16.699997,9 25.100006,13.400001c0.099991,0.1 0.299988,0.1 0.5,0.199999l0,-13.799999l2.699997,0l0,16l-0.100006,0z" fill="#ff2b15" id="svg_6"/>
   <path d="m192.100006,21l-2.699997,0l0,-16l2.699997,0l0,9.3c0.199997,-0.1 0.300003,-0.1 0.400009,-0.2c7.699997,-3 15.299988,-6 23,-9c0.199997,-0.1 0.399994,-0.1 0.599991,-0.1c1.900009,0 3.800003,0 5.800003,0l0.300003,0c0,0 0,0.1 0,0.1c-5.600006,2.2 -11.199997,4.4 -16.900009,6.7c5.900009,3.099999 11.800003,6.2 17.600006,9.2c0,0 0,0 0,0.1c-0.100006,0 -0.199997,0 -0.300003,0c-1.5,0 -2.899994,0 -4.399994,0c-0.199997,0 -0.5,-0.1 -0.699997,-0.200001c-5,-2.6 -9.900009,-5.099999 -14.900009,-7.7c-0.300003,-0.099999 -0.5,-0.099999 -0.699997,0c-3.100006,1.3 -6.300003,2.5 -9.5,3.7c-0.199997,0.1 -0.300003,0.200001 -0.300003,0.5c0,1.1 0,2.200001 0,3.300001l0,0.299999z" fill="#ff2b15" id="svg_7"/>
   <path d="m172,0c1.199997,0 1.800003,0.4 1.600006,1.9c-0.100006,0.6 -0.400009,1 -1.100006,1c-0.5,0 -1,0 -1.399994,-0.1c-0.400009,-0.1 -0.700012,-0.4 -0.700012,-0.8c0,0 0,-0.1 0,-0.1c-0.299988,-1.3 0.200012,-1.9 1.600006,-1.9" fill="#ff2b15" id="svg_8"/>
   <path d="m166.600006,1.5c0,1 -0.300003,1.4 -1.300003,1.5c-0.399994,0 -0.899994,0 -1.299988,-0.1c-0.300003,-0.1 -0.600006,-0.3 -0.600006,-0.7c-0.100006,-0.4 -0.100006,-0.7 0,-1.1c0.100006,-0.6 0.300003,-0.9 0.899994,-1c0.400009,-0.1 0.800003,-0.1 1.200012,0c0.799988,0 1.099991,0.5 1.099991,1.4" fill="#ff2b15" id="svg_9"/>
  </g>
 </g>
</svg>