<?xml version="1.0" encoding="UTF-8"?> <!-- Generator: Adobe Illustrator 22.0.1, SVG Export Plug-In . SVG Version: 6.00 Build 0) --> <svg xmlns="http://www.w3.org/2000/svg" xmlns:xlink="http://www.w3.org/1999/xlink" id="Слой_1" x="0px" y="0px" viewBox="0 0 223 21.4" style="enable-background:new 0 0 223 21.4;" xml:space="preserve"> <style type="text/css"> .st0{fill:#FFFFFF;} </style> <g> <path class="st0" d="M73,10.3c-0.9,0-1.7,0-2.5,0c-0.1,0-0.2-0.1-0.2-0.2c-0.1-0.8-0.6-1.2-1.2-1.5c-0.9-0.5-1.8-0.7-2.8-0.9 c-3.9-0.6-7.7-0.6-11.6-0.5c-2.3,0-4.7,0.2-6.9,0.7c-1.2,0.3-2.4,0.6-3.5,1.1c-0.6,0.2-1.1,0.6-1.6,0.9c-2.1,1.7-2.1,4.6,0.1,6.3 c1.2,0.9,2.6,1.3,4,1.7c2.8,0.7,5.6,0.9,8.5,0.9c3.3,0.1,6.6,0,9.9-0.5c1-0.1,2.1-0.4,3.1-0.7c0.4-0.1,0.7-0.3,1.1-0.5 c0.8-0.5,1.2-1.2,1-2.2H59.1v-2.5H73v8.5h-2.6v-2.7c-0.2,0.2-0.3,0.3-0.5,0.4c-0.7,0.4-1.4,0.8-2.1,1.1c-1.8,0.7-3.6,1-5.5,1.2 c-3.4,0.3-6.8,0.4-10.1,0.1c-2.8-0.2-5.7-0.5-8.3-1.5c-0.8-0.3-1.6-0.7-2.4-1.2c-2.2-1.4-3.3-3.4-3.1-6c0.1-2,1-3.5,2.6-4.7 s3.4-1.9,5.4-2.3c2.6-0.6,5.3-0.8,8-0.9c2.9,0,5.8,0,8.6,0.2c2.2,0.1,4.5,0.4,6.6,1.2c1.1,0.4,2,0.9,2.7,1.9 C72.8,8.6,73,9.4,73,10.3"></path> <path class="st0" d="M168.9,21.3c-3.2,0-5.9-0.1-8.7-0.4c-1.8-0.2-3.5-0.5-5.2-1.2s-3.2-1.7-4-3.5c-0.6-1.3-0.7-2.6-0.6-4 c0.2-3,1.9-4.8,4.6-5.9c1.7-0.7,3.5-1,5.4-1.2c4.3-0.5,8.7-0.5,13-0.3c2.7,0.1,5.3,0.4,7.8,1.3c0.8,0.3,1.6,0.7,2.4,1.1 c1.7,1.1,2.7,2.7,2.8,4.7c0.1,1,0.1,2.1-0.2,3.1c-0.4,1.7-1.4,2.9-2.8,3.9c-1.4,0.9-3,1.3-4.6,1.6C175.5,21.2,172,21.3,168.9,21.3 M167.2,18.8c4.1-0.1,7-0.1,9.8-0.5c1.4-0.2,2.8-0.5,4.1-1.2c2.3-1.1,3.1-3.1,2.5-5.6c-0.3-1.4-1.3-2.2-2.5-2.8 c-1.5-0.7-3-1.1-4.7-1.2c-2.1-0.2-4.2-0.3-6.4-0.4c-3.4-0.1-6.8,0-10.1,0.5c-1.5,0.2-2.9,0.5-4.3,1.2c-2.3,1.2-3,3.2-2.4,5.6 c0.4,1.4,1.4,2.2,2.6,2.8c1.6,0.7,3.3,1.1,5,1.2C163.5,18.6,166,18.7,167.2,18.8"></path> <path class="st0" d="M93.9,21.3c-2.8,0-5.5-0.1-8.3-0.4c-1.8-0.2-3.5-0.5-5.2-1.2c-1.8-0.7-3.3-1.8-4-3.7c-0.8-2-0.8-4,0-6 c0.7-1.8,2.1-2.8,3.8-3.5c1.6-0.7,3.4-1.1,5.2-1.3c4.2-0.6,8.5-0.5,12.7-0.4c2.3,0.1,4.7,0.3,6.9,0.8c1.2,0.3,2.4,0.6,3.5,1.2 c2.3,1.3,3.5,3.2,3.5,5.9c0,1.3-0.1,2.5-0.7,3.7c-0.8,1.7-2.2,2.6-3.9,3.3c-1.7,0.7-3.4,1-5.2,1.2C99.4,21.2,96.7,21.3,93.9,21.3 M92.9,18.8c4.1-0.1,7.1-0.1,10-0.6c1.4-0.2,2.7-0.5,3.9-1.2c1.3-0.7,2.2-1.8,2.4-3.3c0.2-2-0.3-3.6-2.4-4.7 c-0.5-0.3-1-0.5-1.5-0.7c-2.5-0.8-5-1-7.6-1.1c-3.3-0.1-6.5-0.1-9.8,0.1c-1.8,0.1-3.7,0.4-5.5,0.9c-1.2,0.4-2.3,0.9-3.1,1.9 c-1.6,2.1-1,5.3,1.3,6.7c0.3,0.2,0.6,0.3,0.9,0.4c1.7,0.8,3.6,1,5.4,1.2C89.3,18.6,91.6,18.7,92.9,18.8"></path> <path class="st0" d="M18.1,21.3c-2.8,0-5.5-0.1-8.3-0.4c-1.8-0.2-3.7-0.6-5.4-1.3c-1.8-0.7-3.2-1.8-3.9-3.7c-0.7-2-0.7-4,0-5.9 s2.2-2.9,4-3.7c1.6-0.7,3.3-1,5-1.2c4.2-0.6,8.4-0.5,12.7-0.4c2.3,0.1,4.7,0.3,7,0.8c1.3,0.3,2.5,0.7,3.7,1.3 c2.1,1.2,3.2,3,3.3,5.4c0.1,1.3,0,2.6-0.6,3.9c-0.8,1.8-2.3,2.9-4.2,3.6c-1.8,0.7-3.7,1-5.6,1.2c-2.6,0.2-5.2,0.3-7.8,0.5 C18.1,21.3,18.1,21.3,18.1,21.3 M16.9,18.8c4.1-0.1,6.9-0.1,9.8-0.5c1.5-0.2,2.9-0.5,4.2-1.2c2.3-1.2,2.8-2.9,2.5-5.1 c-0.2-1.5-1.2-2.5-2.5-3.2c-1.5-0.8-3.1-1.1-4.8-1.3c-2.1-0.2-4.2-0.3-6.4-0.4c-3.5-0.1-7.1,0-10.6,0.5C7.7,7.9,6.3,8.2,5,9 c-2.4,1.4-3.1,4.6-1.4,6.8c0.5,0.7,1.2,1.1,2,1.5c1.6,0.7,3.3,1.1,5,1.2C13.1,18.6,15.6,18.7,16.9,18.8"></path> <path class="st0" d="M147.6,21c-1.5,0-2.9,0-4.3,0c-0.2,0-0.3-0.1-0.5-0.2c-8.3-4.4-16.5-8.9-24.8-13.3c-0.1-0.1-0.2-0.1-0.4-0.2 V21h-2.7V5h0.4c1.1,0,2.3,0,3.4,0c0.2,0,0.5,0.1,0.7,0.2c8.4,4.5,16.7,9,25.1,13.4c0.1,0.1,0.3,0.1,0.5,0.2V5h2.7L147.6,21 L147.6,21z"></path> <path class="st0" d="M192.1,21h-2.7V5h2.7v9.3c0.2-0.1,0.3-0.1,0.4-0.2c7.7-3,15.3-6,23-9c0.2-0.1,0.4-0.1,0.6-0.1 c1.9,0,3.8,0,5.8,0h0.3v0.1c-5.6,2.2-11.2,4.4-16.9,6.7c5.9,3.1,11.8,6.2,17.6,9.2c0,0,0,0,0,0.1c-0.1,0-0.2,0-0.3,0 c-1.5,0-2.9,0-4.4,0c-0.2,0-0.5-0.1-0.7-0.2c-5-2.6-9.9-5.1-14.9-7.7c-0.3-0.1-0.5-0.1-0.7,0c-3.1,1.3-6.3,2.5-9.5,3.7 c-0.2,0.1-0.3,0.2-0.3,0.5c0,1.1,0,2.2,0,3.3L192.1,21L192.1,21z"></path> <path class="st0" d="M172,0c1.2,0,1.8,0.4,1.6,1.9c-0.1,0.6-0.4,1-1.1,1c-0.5,0-1,0-1.4-0.1s-0.7-0.4-0.7-0.8V1.9 C170.1,0.6,170.6,0,172,0"></path> <path class="st0" d="M166.6,1.5c0,1-0.3,1.4-1.3,1.5c-0.4,0-0.9,0-1.3-0.1c-0.3-0.1-0.6-0.3-0.6-0.7c-0.1-0.4-0.1-0.7,0-1.1 c0.1-0.6,0.3-0.9,0.9-1c0.4-0.1,0.8-0.1,1.2,0C166.3,0.1,166.6,0.6,166.6,1.5"></path> </g> </svg> 