<svg width="0" height="0" class="hidden">
  <symbol xmlns="http://www.w3.org/2000/svg" viewBox="0 0 64 64" id="facebook">
    <path d="M32 1.3c16.9 0 30.7 13.8 30.7 30.7S48.9 62.7 32 62.7 1.3 48.9 1.3 32 15.1 1.3 32 1.3M32 0C14.3 0 0 14.3 0 32s14.3 32 32 32 32-14.3 32-32S49.7 0 32 0z"></path>
    <path d="M38.3 18.6H42v-6.4c-.6-.1-2.8-.3-5.3-.3-5.3 0-8.9 3.3-8.9 9.4V27H22v7.1h5.8V52h7.1V34.1h5.6l.9-7.1h-6.5v-4.9c0-2.1.6-3.5 3.4-3.5z"></path>
  </symbol>
  <symbol xmlns="http://www.w3.org/2000/svg" viewBox="0 0 64 64" id="instagram">
    <path d="M32 1.3c16.9 0 30.7 13.8 30.7 30.7S48.9 62.7 32 62.7 1.3 48.9 1.3 32 15.1 1.3 32 1.3M32 0C14.3 0 0 14.3 0 32s14.3 32 32 32 32-14.3 32-32S49.7 0 32 0z"></path>
    <path d="M38.3 16H25.8c-5.4 0-9.8 4.4-9.8 9.8v12.5c0 5.4 4.4 9.8 9.8 9.8h12.5c5.4 0 9.8-4.4 9.8-9.8V25.7c-.1-5.4-4.4-9.7-9.8-9.7zM32 39.5c-4.1 0-7.5-3.3-7.5-7.5 0-4.1 3.4-7.5 7.5-7.5s7.5 3.4 7.5 7.5-3.4 7.5-7.5 7.5zM40.5 25c-1 0-1.8-.8-1.8-1.8s.8-1.8 1.8-1.8 1.8.8 1.8 1.8-.8 1.8-1.8 1.8z"></path>
  </symbol>
  <symbol xmlns="http://www.w3.org/2000/svg" viewBox="0 0 64 64" id="vimeo">
    <path d="M51 18.7c-1.9-2.4-5.9-2-7.1-1.8-1.9.3-7.8 3.1-9.8 9.3l-.3.9h1.1c2-.2 3.1 0 3.6.5s.7 1.3.5 2.7c-.1 1.5-.9 3.3-1.7 4.8l-.1.1c-.6 1.1-1.7 3.3-2.9 3.4-.5.1-.9-.2-1.4-.7-1.5-1.7-1.9-4.7-2.1-7.4-.1-.9-.2-1.7-.3-2.5l-.1-.7c-.3-1.7-.6-3.5-1.1-5.1-.5-1.7-1.7-3.8-3.4-4.3-1.6-.5-3.6.1-4.9.9-2.3 1.4-4.2 3.1-6.1 4.8-.7.7-1.5 1.5-2.3 2.1-.3.3-.5.7-.5 1.1 0 .3.1.5.3.8.1.1.1.1.1.2.3.5.7 1.1 1.5 1.3s1.7-.1 2.5-.3c1.3-.4 1.8-.5 2.3.4.5.9.8 1.9 1.1 2.9.1.5.3 1 .5 1.5.7 2 1.2 4.1 1.8 6.5l.2.9c.9 3.9 2.3 9.4 5.7 10.8.5.3 1.1.3 1.7.3 1.7 0 3.5-.8 4.5-1.4 4-2.4 6.8-5.8 8.8-8.5 5.6-7.7 8.5-16.2 8.9-18.4.2-2.1-.1-3.9-1-5.1zm-.5 5c-.4 2.1-3.3 10.4-8.6 17.8-2 2.6-4.7 5.9-8.5 8.1-1.2.7-3.5 1.6-5 1-2.8-1.2-4-6.2-4.9-9.9l-.2-.9c-.5-2.3-1.1-4.5-1.8-6.5-.1-.5-.3-.9-.4-1.4-.3-1-.6-2.1-1.2-3.2-.7-1.1-1.4-1.4-2.2-1.4-.6 0-1.2.2-1.7.3-.7.2-1.3.4-1.9.3-.2 0-.8-.8-.9-.9.9-.7 1.7-1.5 2.5-2.2 1.9-1.7 3.7-3.3 5.9-4.5 1-.6 2.6-1.1 3.8-.8 1.1.3 2.1 1.9 2.5 3.4.5 1.5.7 3.3 1 4.9l.1.7c.1.7.2 1.5.3 2.4.3 2.9.6 6.2 2.5 8.2.8.9 1.7 1.3 2.5 1.1 1.8-.3 3.1-2.6 3.9-4.2l.1-.1c.8-1.5 1.7-3.4 1.9-5.2.1-1.8-.1-3-.9-3.8-.9-.9-2.2-1.1-3.6-1 2.2-5.3 7.3-7.3 8.3-7.4 1-.2 4.4-.5 5.8 1.3.8.7 1 2 .7 3.9z"></path>
    <path d="M50.5 23.7c-.4 2.1-3.3 10.4-8.6 17.8-2 2.6-4.7 5.9-8.5 8.1-1.2.7-3.5 1.6-5 1-2.8-1.2-4-6.2-4.9-9.9l-.2-.9c-.5-2.3-1.1-4.5-1.8-6.5-.1-.5-.3-.9-.4-1.4-.3-1-.6-2.1-1.2-3.2-.7-1.1-1.4-1.4-2.2-1.4-.6 0-1.2.2-1.7.3-.7.2-1.3.4-1.9.3-.2 0-.8-.8-.9-.9.9-.7 1.7-1.5 2.5-2.2 1.9-1.7 3.7-3.3 5.9-4.5 1-.6 2.6-1.1 3.8-.8 1.1.3 2.1 1.9 2.5 3.4.5 1.5.7 3.3 1 4.9l.1.7c.1.7.2 1.5.3 2.4.3 2.9.6 6.2 2.5 8.2.8.9 1.7 1.3 2.5 1.1 1.8-.3 3.1-2.6 3.9-4.2l.1-.1c.8-1.5 1.7-3.4 1.9-5.2.1-1.8-.1-3-.9-3.8-.9-.9-2.2-1.1-3.6-1 2.2-5.3 7.3-7.3 8.3-7.4 1-.2 4.4-.5 5.8 1.3.8.7 1 2 .7 3.9z"></path>
    <path d="M32 1.3c16.9 0 30.7 13.8 30.7 30.7S48.9 62.7 32 62.7 1.3 48.9 1.3 32 15.1 1.3 32 1.3M32 0C14.3 0 0 14.3 0 32s14.3 32 32 32 32-14.3 32-32S49.7 0 32 0z"></path>
  </symbol>
</svg>